<svg version="1.2" xmlns="http://www.w3.org/2000/svg" viewBox="0 0 512 512" width="512" height="512"><style>.a{fill:#fff}.b{opacity:1;fill:#276abf}.c{fill:#4b1220}</style><path class="a" d="m256 506c-138.3 0-250-111.8-250-250 0-138.3 111.8-250 250-250 138.3 0 250 111.8 250 250 0 138.3-111.8 250-250 250z"/><path fill-rule="evenodd" class="b" d="m259.5-0.4c12.1 0.2 25.2 1 31 1.9 5.5 0.9 17.4 3.4 26.5 5.6 9.1 2.2 22.4 6.2 29.5 8.9 7.1 2.7 16.1 6.3 27 11.2l-0.7-2.4c-0.3-1.2-1.6-5.2-2.9-8.8-2-6-2.1-6.8-0.7-9.5 0.8-1.6 3.1-3.8 5.1-4.7 2.1-1 4.8-1.8 6.2-1.8 1.4 0 3.7 0.6 5.3 1.4 1.5 0.8 3.7 3.1 4.9 5.2 1.2 2.2 6.4 13.6 11.6 25.4 5.2 11.8 9.7 22.9 10.1 24.5 0.5 1.9 0.2 4.3-0.8 6.8-0.9 2-3 4.6-4.8 5.7-3.1 1.9-5.1 2-32 2-23.3 0-29.4-0.3-32-1.5-1.8-0.8-4.1-2.8-5-4.5-1-1.6-1.8-4.3-1.8-6 0-1.6 0.7-4.2 1.5-5.7 0.9-1.6 2.6-3.4 3.8-4.2 1.2-0.8 4.5-1.5 7.4-1.5 2.8-0.1 5.4-0.3 5.7-0.6 0.3-0.3-3.1-2.1-7.6-4.2-4.6-2-14.2-5.5-21.3-7.7-7.1-2.3-18.4-5.3-25-6.6-6.6-1.3-16.4-2.9-21.8-3.4-5.3-0.6-16.1-1.1-23.9-1.1-7.9 0-19 0.5-24.8 1-5.8 0.6-16 2.2-22.8 3.5-6.7 1.4-18.2 4.5-25.4 6.9-7.3 2.4-18.2 6.6-24.3 9.3-6.1 2.7-15.7 7.8-21.5 11.3-5.8 3.5-14.8 9.5-19.9 13.4-5.2 3.9-14.9 12.3-21.5 18.6-6.5 6.3-15.1 15.3-19 20-3.9 4.7-10.1 13-13.8 18.5-3.7 5.5-8.8 13.8-11.3 18.5-2.5 4.7-6.2 12.1-8.2 16.5-1.9 4.4-4.6 11.2-6 15-1.3 3.8-3.5 10.8-4.8 15.5-1.3 4.7-3.3 14.1-4.5 21-1.6 8.8-2.4 18.5-2.7 33-0.4 13-0.1 24.3 0.6 31 0.7 5.8 2.1 15 3.2 20.5 1 5.5 3.5 14.9 5.4 21 2 6.1 5.7 15.7 8.2 21.5 2.6 5.8 7.1 14.8 10.1 20 3 5.2 7.3 12.2 9.5 15.5 2.2 3.3 4.4 7.4 4.9 9 0.4 1.7 0.3 4.6-0.2 6.8-0.7 2.5-2 4.3-4.3 5.7-1.7 1.1-5 2-7.2 2-2.8 0-4.7-0.6-6.5-2.2-1.3-1.3-5.5-7-9.3-12.8-3.8-5.8-10.3-17.5-14.6-26-4.3-8.7-9.7-21.6-12.3-29.5-2.6-7.7-6-20.5-7.7-28.5-1.6-8-3.5-19.4-4.2-25.5-0.7-6.7-0.9-17.8-0.6-28.5 0.3-9.8 1.5-23.7 2.7-31.5 1.1-7.7 3.6-19.8 5.5-27 1.8-7.2 4.8-16.8 6.5-21.5 1.7-4.7 6.2-14.8 9.9-22.5 3.8-7.7 10.9-20.1 15.9-27.5 4.9-7.4 12.8-18 17.5-23.5 4.6-5.5 13.8-15.2 20.3-21.5 6.6-6.3 15.7-14.5 20.4-18.1 4.7-3.6 11.9-8.8 16-11.6 4.1-2.7 11.3-7.2 16-9.8 4.7-2.7 13.2-6.9 19-9.6 5.8-2.6 15.2-6.3 21-8.3 5.8-2 16.8-5.2 24.5-7.1 7.7-1.9 19.2-4.1 25.5-4.9 6.3-0.9 13.1-1.7 15-2 1.9-0.2 12.9-0.3 24.5 0zm196.5 110.9c1.9 0.3 4.6 1.5 5.9 2.8 1.2 1.2 5.6 7.2 9.6 13.2 4 6.1 9.8 15.9 12.8 22 3 6.1 7 14.6 8.7 19 1.8 4.4 4.3 11.2 5.7 15 1.3 3.8 3.5 11.3 4.8 16.5 1.3 5.2 3.4 16 4.6 24 1.7 11.2 2.2 18.9 2.2 34 0 13.2-0.5 22.9-1.7 30-0.9 5.8-2.6 15.2-3.7 21-1.2 5.8-3.4 14.9-5 20.3-1.6 5.3-5.1 15.3-7.9 22.2-2.7 6.9-6.5 15.5-8.4 19.3-1.8 3.7-5.9 11-9.1 16.2-3.1 5.2-8.2 13.1-11.3 17.4-3.1 4.3-10 12.9-15.2 18.9-5.2 6.1-14.2 15.4-20 20.6-5.8 5.2-14.8 12.6-20 16.5-5.2 4-13.6 9.7-18.5 12.7-4.9 3.1-13.7 8-19.5 10.9-5.8 2.9-15.4 7.3-21.5 9.7-6.1 2.4-15.5 5.8-21 7.4-5.5 1.6-15.6 4-22.5 5.4-6.9 1.3-18.2 3.1-25.2 3.9-7.1 0.9-18.5 1.6-25.5 1.6-7.3 0-19-0.9-27.3-2-8-1.1-18.1-2.7-22.5-3.6-4.4-0.9-13.4-3.2-20-5.1-6.6-1.9-17.4-5.5-24-8-6.6-2.5-15.5-6.3-19.7-8.4-4.3-2.2-8-3.8-8.2-3.6-0.2 0.1 0.4 3.3 1.4 7.2 1.4 5.6 1.6 7.6 0.6 9.9-0.6 1.6-2.4 3.8-3.9 5-1.6 1.1-4.1 2.1-5.5 2-1.5 0-3.9-0.4-5.4-0.7-1.6-0.4-3.6-1.9-4.7-3.4-1-1.6-6.5-13.8-12.2-27.3-7.9-18.6-10.3-25.5-10.2-28.5 0.1-2.2 0.7-5 1.5-6.3 0.7-1.2 2.8-2.9 4.5-3.7 2.7-1.2 8.7-1.5 63.3-1l2.6 2.5c1.8 1.8 2.7 3.9 3.1 7.5 0.6 4.7 0.4 5.2-3 9-3.5 3.9-3.7 4-20.2 5l9.5 4.7c5.2 2.5 14 6.3 19.5 8.3 5.5 2 15.2 5.2 21.5 7 6.3 1.8 17.1 4.3 24 5.5 8.3 1.4 18.7 2.4 31 2.7 15.8 0.5 20.7 0.2 34-1.7 8.5-1.2 20.7-3.5 27-5.1 6.3-1.5 16.2-4.4 22-6.4 5.8-2 16.8-6.7 24.5-10.5 7.7-3.8 18.5-9.9 24-13.5 5.5-3.7 14.1-10 19-13.9 4.9-4 13.3-11.5 18.5-16.7 5.2-5.2 12.4-13 15.9-17.4 3.5-4.4 9.4-12.5 13.1-18 3.6-5.5 8.9-14.3 11.7-19.5 2.8-5.2 7.1-14.7 9.7-21 2.5-6.3 6.1-16.9 7.9-23.5 1.9-6.6 4.2-16.3 5.1-21.5 0.9-5.2 2.2-16.7 2.8-25.5 0.9-12 0.9-19.5 0-30-0.7-7.7-2.1-18.9-3.2-25-1-6.1-3.3-15.6-5-21.3-1.6-5.6-4.8-14.6-7.1-19.9-2.2-5.4-6.3-14.1-9.1-19.3-2.7-5.2-7.9-14-11.5-19.5-6.1-9.3-6.6-10.3-6.2-14.7 0.3-3 1.2-5.6 2.8-7.3 1.2-1.6 3.3-3.2 4.5-3.6 1.1-0.5 3.7-0.6 5.6-0.4zm-200-73.5c0.8 0 2.9 0.4 4.5 1 1.9 0.6 7.1 5.6 14 13.2 6.1 6.8 26.3 28.9 45 49.3 18.7 20.3 40.5 44.1 48.5 52.8 8 8.7 15 16.8 15.7 18 0.7 1.2 1.2 3.7 1.3 5.5 0 1.7-0.5 4.2-1 5.5-0.6 1.2-2.4 3-4 4-2.6 1.5-5.9 1.7-48 1.7v46c0 38.9-0.2 46.5-1.5 49-0.8 1.6-3 3.9-4.7 5-3.2 1.9-5.1 2-69.5 2-56.9 0-66.7-0.2-69.3-1.5-1.7-0.8-3.9-2.9-5-4.5-1.9-2.9-2-4.4-1.5-61l3-3c2-2 4.4-3.3 7-3.7 2.7-0.4 5.1 0 7.3 1.1 1.7 0.9 3.9 2.9 4.7 4.6 1.2 2.4 1.5 7.3 1.5 44l103.5-0.5 0.5-46.5c0.4-41 0.7-46.8 2.2-49 0.9-1.4 3.2-3.3 5.2-4.2 2.8-1.4 6.2-1.8 16.1-1.8 7 0 12.4-0.4 12.3-0.9-0.2-0.5-6.6-7.8-14.3-16.2-7.7-8.4-24.4-26.6-37-40.4-12.6-13.8-25.9-28.3-29.5-32.3-3.6-4-6.8-7.1-7.2-7-0.4 0.2-9.2 9.6-19.5 20.9-10.3 11.3-26.2 28.7-35.3 38.5-9.1 9.9-20.2 22-24.7 26.9-4.5 5-8.2 9.3-8.3 9.8 0 0.4 6.5 0.8 14.4 1 12.9 0.2 14.8 0.4 17.3 2.3 1.5 1.2 3.4 3.9 4.2 6 1.3 3.4 1.3 4.4 0 7.8-0.8 2.2-2.7 4.9-4.2 6-2.7 2-4.2 2.1-32.8 2.4-26.7 0.2-30.3 0-33.5-1.5-2-1-4.3-3-5-4.5-0.8-1.6-1.4-4.5-1.4-6.5 0-2.1 0.8-5 1.8-6.4 0.9-1.4 20.6-23 43.8-48 23.2-25 49.7-53.7 59-63.8 9.3-10.2 18.2-19 19.9-19.7 1.7-0.7 3.7-1.3 4.5-1.4z"/><path class="c" d="m77.3 391q1 11.7 8.2 14.2 7.4 2.5 8.2 1.9 11.8-0.9 14.5-8 2.6-7.1 2.2-8.1v-17h16.7q15.2-0.1 25.3-5 10.1-4.9 14.8-13.4 4.1-7.1 5.1-12.8 0.9-5.6 0.8-5.7-0.5-12-6.6-19.9-6-7.9-16.4-11.6-9-3.2-15.9-3.9l-7.1-0.6h-30.5q-13.9 1.3-17 9.9-3.1 8.8-2.3 10zm33.1-43.1v-21.7h16.7q9.5 0.6 11.4 5.8 2 4.9 1.7 5.7-0.5 7.4-5.7 9.1-5.1 1.6-5.7 1.1zm77.4 6.5q0.8 17.4 9 29.7 8.4 12.3 21.3 18.2 11.4 5.2 23.9 5.2 16.2 0 29.5-8.6 12.1-7.8 18.5-19.8 6.6-12 6.7-24.7-0.8-16.6-9-29.2-8.2-12.6-21.1-19.3-12.3-6.5-24.3-6.6-15.9 0.7-28.5 8.8-12.4 7.9-19.2 20.6-6.5 12.3-6.8 25.7zm75.3 0q-0.3 13-6.2 20.8-5.7 7.6-14.6 7.6-9.4-0.3-15-8.2-5.6-8.1-5.6-20.7 0-11.8 5.3-19.7 5.4-8.1 15.5-8.8 9.7 0.5 15.1 8.8 5.5 8.2 5.5 20.2zm113 11.7l-14.3-51q-3.8-10.1-10.4-12.3-6.9-2.2-7.5-1.8h-9.1q-12.9 1.2-15.6 9-2.8 7.9-2.2 8.9v74.7q0.8 9.8 7.4 11.9 6.5 2 7.5 1.6 11.3-0.7 13.6-6.7 2.4-5.9 1.9-6.8v-50.4l15.6 56.3q1.1 3.2 3.9 5.1 2.8 1.8 5.9 2.2 2.5 0.6 3.3 0.3 7.8-0.4 10.7-3.8 2.7-3.4 2.5-3.8l15.6-56.3v50.4q0.8 9.8 7.7 11.9 6.9 2 7.8 1.6 10.7-0.7 13-6.7 2.4-5.9 1.9-6.8v-74.7q-1.2-12.7-8.9-15.5-7.6-2.8-9-2.4h-9q-11 0.9-14.5 7.1-3.7 5.7-3.4 7z"/></svg>