<svg version="1.2" xmlns="http://www.w3.org/2000/svg" viewBox="0 0 128 128" width="128" height="128"><style>.a{fill:#fff}.b{fill:#276abf;stroke:#266abe;stroke-miterlimit:100;stroke-width:.3}</style><path class="a" d="m64 126.5c-34.6 0-62.5-27.9-62.5-62.5 0-34.6 27.9-62.5 62.5-62.5 34.6 0 62.5 27.9 62.5 62.5 0 34.6-27.9 62.5-62.5 62.5z"/><path  d="m63.6 78l-11.3-40.1q-3-7.9-8.2-9.6-5.4-1.8-5.8-1.4h-7.2q-10.1 0.9-12.3 7-2.2 6.2-1.7 7v58.8q0.7 7.7 5.8 9.3 5.1 1.7 5.9 1.3 8.9-0.6 10.7-5.3 1.9-4.6 1.5-5.3v-39.6l12.3 44.2q0.9 2.6 3.1 4 2.2 1.4 4.6 1.8 1.9 0.4 2.6 0.2 6.1-0.3 8.4-3 2.1-2.6 2-3l12.2-44.2v39.6q0.7 7.7 6.1 9.3 5.4 1.7 6.1 1.3 8.4-0.6 10.3-5.3 1.8-4.6 1.5-5.3v-58.8q-0.9-10-7.1-12.2-5.9-2.2-7-1.8h-7.1q-8.7 0.7-11.4 5.5-2.9 4.5-2.7 5.5z"/><path class="b" d="m57 9.5c3-3.3 10.5-3.3 13.5 0l26 29.1c3 3.4-0.8 7.6-6.8 7.6h-51.9c-6 0-9.8-4.2-6.7-7.6zm-8.1 39.6c0-2.8 2.2-5 5-5h20c2.7 0 5 2.2 5 5v29.4c0 2.8-2.3 5-5 5h-20c-2.8 0-5-2.2-5-5z"/></svg>